<svg width="32" height="32" viewBox="0 0 32 32" fill="none" xmlns="http://www.w3.org/2000/svg">
<rect width="32" height="32" rx="16" fill="#475009"/>
<path d="M9.00001 16C9.00001 12.134 12.134 9 16 9C19.866 9 23 12.134 23 16C23 19.866 19.866 23 16 23C14.816 23 13.699 22.7055 12.72 22.1855L9.95601 22.9715C9.82755 23.0079 9.69169 23.0094 9.56248 22.9757C9.43327 22.9421 9.31538 22.8746 9.22099 22.7801C9.1266 22.6857 9.05914 22.5678 9.02556 22.4385C8.99199 22.3093 8.99352 22.1734 9.03001 22.045L9.81601 19.2815C9.27883 18.2712 8.99859 17.1442 9.00001 16ZM13 14.5C13 14.6326 13.0527 14.7598 13.1465 14.8536C13.2402 14.9473 13.3674 15 13.5 15H18.5C18.6326 15 18.7598 14.9473 18.8536 14.8536C18.9473 14.7598 19 14.6326 19 14.5C19 14.3674 18.9473 14.2402 18.8536 14.1464C18.7598 14.0527 18.6326 14 18.5 14H13.5C13.3674 14 13.2402 14.0527 13.1465 14.1464C13.0527 14.2402 13 14.3674 13 14.5ZM13.5 17C13.3674 17 13.2402 17.0527 13.1465 17.1464C13.0527 17.2402 13 17.3674 13 17.5C13 17.6326 13.0527 17.7598 13.1465 17.8536C13.2402 17.9473 13.3674 18 13.5 18H16.5C16.6326 18 16.7598 17.9473 16.8536 17.8536C16.9473 17.7598 17 17.6326 17 17.5C17 17.3674 16.9473 17.2402 16.8536 17.1464C16.7598 17.0527 16.6326 17 16.5 17H13.5Z" fill="white"/>
</svg>
