<svg width="32" height="32" viewBox="0 0 32 32" fill="none" xmlns="http://www.w3.org/2000/svg">
<rect width="32" height="32" rx="16" fill="#475009"/>
<path d="M9 14.7467V18.5C9 19.163 9.27656 19.7989 9.76884 20.2678C10.2611 20.7366 10.9288 21 11.625 21H20.375C21.0712 21 21.7389 20.7366 22.2312 20.2678C22.7234 19.7989 23 19.163 23 18.5V14.7467L16.3587 17.5933C16.2459 17.6416 16.1237 17.6666 16 17.6666C15.8763 17.6666 15.7541 17.6416 15.6413 17.5933L9 14.7467ZM9.06475 12.9467L16 15.92L22.9353 12.9467C22.8035 12.3938 22.4783 11.9 22.0131 11.5463C21.5479 11.1925 20.9703 10.9999 20.375 11H11.625C11.0297 10.9999 10.4521 11.1925 9.98687 11.5463C9.52166 11.9 9.19651 12.3938 9.06475 12.9467Z" fill="white"/>
</svg>
