<svg width="142" height="36" viewBox="0 0 142 36" fill="none" xmlns="http://www.w3.org/2000/svg">
<g clip-path="url(#clip0_3_198)">
<path d="M22.1667 35.9951V20.5987C30.0968 20.9409 35.3919 27.0428 35.3919 36H36.6893C36.6893 26.4414 30.8382 19.2981 21.4554 19.2981C21.24 19.2981 21.0797 19.2981 20.8643 19.2981V35.9951H22.1667Z" fill="white"/>
<path d="M80.6884 28.2847C80.5602 29.6468 80.0291 30.9432 79.1596 32.0161C78.2902 33.0889 77.12 33.892 75.7914 34.3275C74.4628 34.7629 73.0331 34.8121 71.6764 34.4689C70.3197 34.1257 69.0945 33.405 68.1499 32.3945C67.2053 31.3841 66.582 30.1273 66.3559 28.7774C66.1298 27.4274 66.3107 26.0424 66.8765 24.791C67.4423 23.5395 68.3687 22.4756 69.5428 21.7286C70.7169 20.9817 72.0882 20.584 73.4897 20.584H79.2858V19.2981H73.4897C71.7994 19.2981 70.1471 19.7873 68.7417 20.7038C67.3363 21.6204 66.2409 22.9231 65.594 24.4472C64.9472 25.9714 64.7779 27.6485 65.1077 29.2666C65.4375 30.8846 66.2514 32.3708 67.4466 33.5374C68.6418 34.7039 70.1646 35.4983 71.8224 35.8202C73.4803 36.142 75.1986 35.9768 76.7602 35.3455C78.3219 34.7142 79.6566 33.6451 80.5957 32.2734C81.5348 30.9017 82.036 29.289 82.036 27.6393C82.036 27.4241 82.036 27.2139 82.036 27.0037H73.3996V28.2847H80.6884Z" fill="white"/>
<path d="M58.1108 26.9938C57.9789 25.634 57.4454 24.3408 56.575 23.2711C55.7047 22.2015 54.5349 21.4014 53.2077 20.9681C51.8805 20.5347 50.4529 20.4867 49.0983 20.8298C47.7436 21.173 46.5202 21.8925 45.5764 22.9011C44.6327 23.9098 44.0092 25.1641 43.7817 26.5118C43.5541 27.8596 43.7324 29.2428 44.2947 30.4936C44.857 31.7445 45.7792 32.8091 46.9495 33.5582C48.1197 34.3074 49.4876 34.7089 50.8871 34.7141H56.6831V36H50.8871C49.1968 36 47.5445 35.5108 46.139 34.5942C44.7336 33.6777 43.6382 32.375 42.9914 30.8508C42.3445 29.3267 42.1753 27.6495 42.505 26.0315C42.8348 24.4135 43.6488 22.9272 44.844 21.7607C46.0392 20.5942 47.562 19.7997 49.2198 19.4779C50.8776 19.1561 52.596 19.3212 54.1576 19.9526C55.7192 20.5839 57.0539 21.653 57.993 23.0247C58.9321 24.3964 59.4333 26.0091 59.4333 27.6588C59.4333 27.8739 59.4333 28.0842 59.4333 28.2944H44.53V26.9938H58.1108Z" fill="white"/>
<path d="M90.8277 19.2981H89.5252V35.9951H90.8277V19.2981Z" fill="white"/>
<path d="M121.997 19.2981H120.694V35.9951H121.997V19.2981Z" fill="white"/>
<path d="M110.47 35.9902V31.5214C110.47 30.6638 110.121 29.8413 109.5 29.2344C108.879 28.6275 108.037 28.2859 107.159 28.2847H101.693V27.0037H107.169C107.61 27.0205 108.05 26.9502 108.463 26.797C108.876 26.6437 109.253 26.4107 109.571 26.1119C109.889 25.8131 110.143 25.4546 110.316 25.058C110.489 24.6613 110.578 24.2347 110.578 23.8036C110.578 23.3725 110.489 22.9459 110.316 22.5492C110.143 22.1526 109.889 21.7941 109.571 21.4953C109.253 21.1965 108.876 20.9635 108.463 20.8102C108.05 20.657 107.61 20.5867 107.169 20.6035H104.163C103.731 20.599 103.302 20.6781 102.901 20.8362C102.501 20.9943 102.136 21.2284 101.829 21.5248C101.521 21.8212 101.277 22.1741 101.11 22.5631C100.943 22.9522 100.857 23.3696 100.857 23.7914L100.882 36.0147H99.5791V23.7914C99.5784 23.2015 99.6969 22.6174 99.9277 22.0722C100.159 21.5271 100.497 21.0317 100.924 20.6144C101.351 20.1971 101.859 19.8661 102.417 19.6402C102.975 19.4144 103.574 19.2981 104.178 19.2981H107.184C107.788 19.2975 108.387 19.4132 108.946 19.6388C109.505 19.8644 110.013 20.1953 110.44 20.6127C110.868 21.0301 111.207 21.5257 111.438 22.0711C111.669 22.6166 111.788 23.2011 111.787 23.7914C111.803 24.5747 111.6 25.3474 111.199 26.0263C110.798 26.7052 110.215 27.2646 109.513 27.6442C110.206 28.0403 110.781 28.6067 111.18 29.287C111.579 29.9672 111.788 30.7376 111.787 31.5214V35.9951L110.47 35.9902Z" fill="white"/>
<path d="M8.16553 35.9951C9.38918 35.9951 10.5627 35.5207 11.428 34.6762C12.2932 33.8317 12.7793 32.6863 12.7793 31.4921C12.7793 30.2978 12.2932 29.1524 11.428 28.3079C10.5627 27.4634 9.38918 26.989 8.16553 26.989H4.60376C4.16307 27.0058 3.72344 26.9356 3.31121 26.7827C2.89899 26.6297 2.52265 26.397 2.20476 26.0987C1.88688 25.8003 1.63398 25.4424 1.46123 25.0463C1.28848 24.6503 1.19944 24.2243 1.19944 23.7938C1.19944 23.3634 1.28848 22.9374 1.46123 22.5413C1.63398 22.1453 1.88688 21.7874 2.20476 21.489C2.52265 21.1907 2.89899 20.958 3.31121 20.805C3.72344 20.652 4.16307 20.5818 4.60376 20.5987H12.2182V19.2932H4.61879C4.00177 19.2734 3.38696 19.3748 2.81092 19.5915C2.23489 19.8083 1.70941 20.1359 1.26573 20.5549C0.822056 20.9738 0.469251 21.4756 0.228304 22.0304C-0.0126435 22.5851 -0.13681 23.1815 -0.13681 23.7841C-0.13681 24.3866 -0.0126435 24.983 0.228304 25.5377C0.469251 26.0925 0.822056 26.5943 1.26573 27.0133C1.70941 27.4322 2.23489 27.7598 2.81092 27.9766C3.38696 28.1933 4.00177 28.2948 4.61879 28.2749H8.16553C9.04241 28.2749 9.88338 28.6149 10.5034 29.22C11.1235 29.8252 11.4718 30.646 11.4718 31.5018C11.4718 32.3577 11.1235 33.1785 10.5034 33.7836C9.88338 34.3888 9.04241 34.7288 8.16553 34.7288H0.105204V35.9951H8.16553Z" fill="#63717A"/>
<path d="M123.735 2.15619C123.735 2.15619 123.881 1.79438 125.033 1.59881L125.058 1.53036C125.058 1.53036 125.914 0.112456 128.564 0.00978045C131.099 -0.0880058 131.75 0.718731 131.951 0.914303C132.151 1.10988 132.702 2.22464 131.951 2.4251C131.044 2.66957 129.251 2.07307 129.251 2.07307C129.251 2.07307 126.08 1.237 124.892 2.51311L123.735 2.15619Z" fill="white"/>
<path d="M119.473 1.77482C119.473 1.77482 119.573 1.52057 120.394 1.38367V1.33478C120.394 1.33478 121.001 0.356918 122.874 0.259132C124.748 0.161346 125.093 0.77251 125.093 0.77251C124.861 1.04794 124.542 1.24188 124.187 1.325C123.882 1.37269 123.599 1.50901 123.375 1.71615C123.375 1.71615 121.126 1.12454 120.279 2.02906L119.473 1.77482Z" fill="white"/>
<path d="M128.705 0.415589C129.964 0.334864 131.21 0.703216 132.211 1.45212C132.296 1.59696 132.329 1.76475 132.306 1.92985C132.284 2.09494 132.206 2.24828 132.086 2.36642C131.838 2.45593 131.574 2.49584 131.31 2.48377C130.546 2.41709 129.793 2.26451 129.065 2.02906C128.865 1.98995 128.635 1.93128 128.444 1.90683C127.782 1.79566 127.108 1.77427 126.44 1.84327C126.175 1.87749 127.297 0.537822 128.705 0.415589Z" fill="white"/>
<path d="M134.216 4.84532C134.145 4.84532 134.14 4.78175 134.13 4.71819C133.981 4.54681 133.822 4.38359 133.654 4.22926C133.608 4.20346 133.559 4.1806 133.509 4.16081C133.386 4.06599 133.249 3.98864 133.103 3.93101C132.938 3.87234 132.698 3.799 132.557 3.73055C132.507 3.73055 132.487 3.73055 132.447 3.73055C132.407 3.73055 132.417 3.68655 132.382 3.68655C132.347 3.68655 132.162 3.68655 132.107 3.63766C132.203 3.62151 132.301 3.62151 132.397 3.63766C132.397 3.56921 132.302 3.57409 132.252 3.53987C132.202 3.50564 132.061 3.40297 131.956 3.33941C131.778 3.23171 131.59 3.14006 131.395 3.06561C131.314 3.03256 131.227 3.01593 131.14 3.01671C130.919 2.87003 130.534 2.9336 130.348 2.86026C130.308 2.86026 130.348 2.90426 130.288 2.86026C130.228 2.81625 130.158 2.86026 130.043 2.86026C129.772 2.92871 129.346 2.92382 129.201 2.99227C129.083 3.04767 128.961 3.09346 128.835 3.12917C128.665 3.17431 128.498 3.22983 128.334 3.2954C128.094 3.3883 127.833 3.53009 127.568 3.64743C127.665 3.5731 127.771 3.5107 127.883 3.46164C127.791 3.46812 127.701 3.49134 127.618 3.53009C127.383 3.62788 127.207 3.75011 126.972 3.84301C126.893 3.85807 126.816 3.88101 126.741 3.91146C126.576 4.00435 126.396 4.08747 126.24 4.18526C126.085 4.28305 125.98 4.38572 125.865 4.46884L125.629 4.64974C125.503 4.74182 125.382 4.84143 125.269 4.94799C125.213 4.992 125.183 5.04089 125.128 5.08C125.073 5.11912 125.163 5.08 125.128 5.08C124.872 5.37623 124.658 5.70521 124.492 6.05787C124.174 6.88554 124.126 7.7893 124.357 8.64431C124.131 7.24108 124.472 6.00408 125.299 5.27069C125.303 5.26152 125.305 5.2515 125.305 5.24135C125.305 5.2312 125.303 5.22118 125.299 5.21201C125.404 5.21201 125.459 5.04089 125.589 5.01155C125.595 4.97702 125.614 4.94572 125.641 4.9233C125.669 4.90088 125.704 4.88883 125.739 4.88932V4.84043C126.015 4.60574 126.336 4.40528 126.606 4.16081C126.731 4.12659 126.796 4.0288 126.912 3.9848C126.401 4.38009 125.919 4.80977 125.469 5.27069C125.469 5.33914 125.469 5.4027 125.494 5.48093C125.324 5.48093 125.369 5.74006 125.213 5.78406C125.213 5.74006 125.248 5.70095 125.213 5.66183C124.922 6.03564 124.711 6.46306 124.593 6.91845C124.475 7.37383 124.453 7.84778 124.527 8.31184C124.592 8.61559 124.64 8.9224 124.672 9.23103C124.672 9.27014 124.727 9.28481 124.733 9.32881C124.808 9.63195 124.968 9.85197 125.038 10.1111C125.118 10.1404 125.128 10.2382 125.158 10.3165C125.479 10.9111 125.887 11.4564 126.371 11.9348C126.321 11.9055 126.3 11.793 126.305 11.7441C126.447 11.8619 126.575 11.9948 126.686 12.1402C126.636 12.1011 126.571 12.0668 126.526 12.0815C126.481 12.0962 126.586 12.1206 126.586 12.1597C126.586 12.1988 126.561 12.1597 126.541 12.1597C126.586 12.2673 126.686 12.3162 126.771 12.3846C126.857 12.4531 126.992 12.6242 127.112 12.7073C127.423 12.9322 127.723 13.1376 128.039 13.3381C128.505 13.6265 128.986 13.8563 129.467 14.1155L129.747 14.179C130.058 14.3012 130.373 14.4235 130.699 14.5262C131.31 14.7505 131.943 14.9143 132.587 15.0151V15.0542C132.628 15.0053 132.648 15.0835 132.688 15.0542C132.625 15.0232 132.56 14.9986 132.492 14.9809L132.252 14.8977C132.081 14.8488 131.911 14.8195 131.751 14.7657C131.546 14.6926 131.347 14.606 131.155 14.5066C130.841 14.3899 130.535 14.2543 130.238 14.1008H130.163C130.118 14.0763 130.078 14.0128 130.018 13.9785C129.957 13.9443 129.862 13.9541 129.857 13.8954C129.922 13.9248 130.113 13.9785 129.957 13.8954C129.696 13.7814 129.443 13.649 129.201 13.4994C128.773 13.1953 128.361 12.8688 127.969 12.5215C128.094 12.5802 128.244 12.7562 128.344 12.7122C128.344 12.7122 128.294 12.6878 128.344 12.6878C128.289 12.6878 128.104 12.458 128.019 12.3797C127.854 12.2465 127.698 12.1028 127.553 11.9495C127.393 11.749 127.197 11.5143 127.052 11.3432C126.984 11.2079 126.902 11.08 126.806 10.9618C126.767 10.8325 126.706 10.7103 126.626 10.6C126.355 10.066 126.199 9.48377 126.165 8.88878C126.123 8.23692 126.287 7.58809 126.636 7.03084H126.686C126.829 6.82138 126.997 6.62934 127.187 6.45879C127.212 6.45879 127.187 6.45879 127.242 6.45879C127.526 6.22824 127.835 6.02978 128.164 5.86718C129.482 5.1252 130.986 4.75455 132.507 4.79642C132.605 4.80755 132.702 4.82388 132.798 4.84532C132.913 4.84532 133.053 4.84532 133.093 4.91866C133.133 4.992 132.988 4.91866 132.958 4.91866C133.323 5.06065 133.712 5.13366 134.105 5.13379C134.105 5.07022 134.18 5.07022 134.19 5.01644C134.2 4.96266 134.15 4.88932 134.216 4.84532ZM128.43 13.03C128.369 13.0008 128.318 12.9549 128.284 12.898C128.342 12.9314 128.391 12.9764 128.43 13.03ZM127.974 12.8296C127.913 12.7992 127.861 12.7537 127.823 12.6975C127.884 12.7279 127.936 12.7735 127.974 12.8296ZM125.344 7.2753C125.309 7.25086 125.344 7.2753 125.304 7.3242C125.364 7.29486 125.269 7.43665 125.304 7.45621H125.238C125.252 7.44709 125.262 7.43441 125.269 7.41967C125.275 7.40494 125.276 7.38877 125.274 7.37309C125.243 7.44154 125.274 7.37309 125.238 7.3242C125.203 7.2753 125.238 7.3242 125.264 7.3242C125.295 7.02786 125.395 6.74221 125.554 6.48812C125.524 6.56635 125.524 6.67392 125.459 6.71303C125.484 6.90861 125.324 7.08462 125.344 7.2753ZM125.559 8.7421C125.594 8.7421 125.594 8.84477 125.604 8.91811C125.61 9.0039 125.63 9.08817 125.664 9.16747C125.664 9.41682 125.784 9.69551 125.8 9.86175C125.657 9.50056 125.576 9.11906 125.559 8.73232V8.7421ZM126.26 10.0622C126.119 9.70373 126.037 9.32597 126.015 8.94256C126.05 8.94256 126.05 9.05012 126.065 9.12346C126.067 9.20981 126.087 9.29483 126.125 9.37282C126.14 9.60751 126.24 9.89109 126.24 10.0524L126.26 10.0622ZM126.932 6.63969C126.932 6.60058 127.007 6.57613 126.992 6.55657C126.977 6.53702 127.032 6.55657 127.052 6.53213C127.041 6.55672 127.024 6.57864 127.003 6.59637C126.983 6.6141 126.958 6.62721 126.932 6.6348V6.63969ZM127.017 3.96035C127.017 3.91635 127.067 3.92613 127.077 3.90168C127.087 3.87723 127.042 3.94568 127.017 3.95546V3.96035ZM127.478 3.64743C127.478 3.70611 127.418 3.70611 127.368 3.72077C127.401 3.69023 127.438 3.66394 127.478 3.64255V3.64743ZM133.254 4.40039C132.677 4.25528 132.08 4.20244 131.485 4.24393C131.25 4.32705 130.899 4.24393 130.634 4.37594C130.609 4.34172 130.594 4.37594 130.539 4.37594C130.483 4.37594 130.468 4.37594 130.473 4.42484C130.478 4.47373 130.473 4.40039 130.473 4.39061C130.15 4.46268 129.831 4.55745 129.522 4.67419H129.461C129.271 4.75731 129.101 4.81109 128.9 4.8991C128.875 4.8991 128.9 4.9431 128.875 4.94799C128.835 4.94564 128.795 4.94564 128.755 4.94799C128.72 4.94799 128.72 4.97733 128.67 4.99688C128.589 5.02104 128.51 5.05212 128.435 5.08978C128.389 5.11912 128.435 5.08978 128.359 5.12401C128.284 5.15823 128.274 5.22668 128.154 5.22179C127.86 5.41006 127.555 5.58305 127.242 5.74006C127.418 5.55916 127.718 5.41737 127.914 5.25113C128.006 5.18863 128.103 5.13306 128.204 5.08489C128.249 5.06045 128.289 5.00666 128.339 4.97733C128.389 4.94799 128.495 4.9431 128.51 4.86976C128.623 4.82608 128.73 4.77033 128.83 4.70353C129.026 4.60574 129.256 4.53729 129.436 4.42484C129.436 4.42484 129.461 4.39061 129.477 4.38083C129.492 4.37105 129.477 4.40528 129.477 4.40528C129.477 4.40528 129.617 4.32705 129.697 4.29771C130.223 4.09928 130.771 3.96303 131.33 3.8919C131.36 3.8919 131.33 3.86745 131.37 3.86745C131.53 3.86745 131.791 3.86745 131.871 3.86745C132.318 3.90172 132.748 4.05009 133.118 4.29771C133.179 4.29771 133.189 4.32216 133.229 4.33194L133.254 4.40039Z" fill="white"/>
<path d="M141.725 17.5527C141.467 17.2817 141.234 16.9888 141.029 16.6775C140.963 16.6433 140.988 16.6775 140.953 16.6775C140.918 16.6775 140.953 16.6286 140.953 16.6042C140.953 16.5797 140.913 16.6042 140.903 16.6042C140.219 15.7257 139.611 14.7936 139.085 13.8172C139.055 13.8172 139.055 13.8172 139.035 13.8172C139.015 13.8172 139.035 13.7732 139.035 13.7439C139.035 13.7146 138.99 13.7439 138.975 13.6852C138.759 13.1719 138.409 12.7318 138.238 12.2184C138.779 12.3113 139.35 12.4678 139.886 12.5411C139.931 12.5508 139.977 12.5508 140.022 12.5411C139.461 12.3749 138.719 12.1891 138.108 12.0033C137.883 11.5144 137.632 11.0597 137.387 10.6196C137.306 10.4827 137.231 10.3458 137.141 10.2187C136.963 9.8946 136.761 9.58406 136.535 9.28974C136.428 9.1579 136.331 9.01904 136.244 8.87415C135.592 7.88179 134.719 7.04609 133.69 6.4295C133.614 6.27793 133.399 6.27304 133.254 6.18992C133.229 6.18992 133.254 6.1557 133.214 6.14103C133.174 6.12636 133.159 6.14103 133.134 6.14103C133.108 6.14103 133.023 6.0628 132.973 6.04324C132.628 5.89757 132.261 5.80995 131.886 5.78411C132.071 5.81344 132.242 5.85256 132.422 5.88678C133.002 6.09386 133.548 6.38031 134.045 6.73752C133.303 6.19578 132.419 5.8703 131.495 5.79878C131.549 5.8005 131.602 5.79047 131.651 5.76944C131.394 5.7433 131.134 5.78379 130.899 5.8868C130.663 5.98982 130.459 6.15172 130.308 6.35616C130.308 6.35616 130.283 6.35616 130.248 6.35616C130.198 6.49306 130.133 6.61529 130.078 6.7473C130.063 7.33094 130.278 7.89782 130.679 8.33144C130.679 8.33144 130.679 8.33144 130.714 8.29721C130.749 8.26299 130.754 8.38033 130.774 8.35589C130.794 8.33144 130.749 8.31188 130.749 8.31188C130.809 8.37055 130.829 8.40478 130.884 8.37055C131.239 8.79872 131.635 9.19324 132.066 9.54888C132.12 9.60556 132.187 9.6477 132.262 9.67111C132.227 9.72978 132.387 9.74445 132.357 9.79823C131.85 9.44478 131.385 9.03817 130.969 8.58568C130.994 8.58568 130.969 8.64924 130.969 8.6688C130.969 8.68836 131.165 8.91327 131.26 9.01594C131.355 9.11862 131.576 9.28486 131.711 9.43154C131.886 9.59115 132.079 9.7306 132.287 9.84713C132.492 9.98403 132.688 10.1503 132.873 10.2529C133.005 10.3 133.129 10.3677 133.239 10.4534C133.048 10.3801 132.853 10.2578 132.678 10.204C132.502 10.1503 132.482 10.0476 132.372 10.0476C132.442 10.0724 132.504 10.1146 132.552 10.1698C132.507 10.1698 132.497 10.0916 132.442 10.1356C132.387 10.1796 132.397 10.1356 132.442 10.1796C132.034 9.95493 131.654 9.68415 131.31 9.37286C131.105 9.22129 130.979 8.98172 130.769 8.83504C130.455 8.46898 130.197 8.06058 130.003 7.62249C129.978 7.72028 130.003 7.62249 130.028 7.71539C130.053 7.80828 130.028 7.71539 130.003 7.71539C130.132 8.18054 130.38 8.60609 130.724 8.95238C130.724 9.11373 130.894 9.20174 131.03 9.33375C131.642 9.9251 132.345 10.4199 133.113 10.8005C133.279 10.8885 133.504 10.9423 133.614 11.0646H133.7C134.02 11.2259 134.396 11.3286 134.702 11.4802C134.741 11.4781 134.781 11.486 134.817 11.5031C134.853 11.5202 134.884 11.546 134.907 11.5779C135.688 11.8029 136.485 11.9789 137.362 12.1695C137.856 13.9568 138.603 15.6682 139.581 17.2544C139.631 17.2544 139.696 17.2789 139.726 17.318C139.726 17.2789 139.801 17.318 139.811 17.2544C139.861 17.3082 139.926 17.3473 139.946 17.4207C140.272 17.6312 140.639 17.7743 141.024 17.8412C141.059 17.8412 141.024 17.7971 141.084 17.8167C141.144 17.8363 141.134 17.8754 141.184 17.8852C141.454 17.846 141.685 18.0954 141.995 18.0563C141.985 17.8363 141.77 17.7287 141.725 17.5527ZM132.447 10.1503C132.447 10.1503 132.447 10.1503 132.472 10.1503C132.497 10.1503 132.517 10.1845 132.532 10.2089C132.547 10.2334 132.467 10.16 132.447 10.1503ZM132.407 9.83735C132.407 9.83735 132.432 9.83735 132.432 9.80312C132.432 9.80312 132.487 9.87157 132.507 9.84224C132.527 9.8129 132.477 9.87157 132.507 9.87646C132.537 9.88135 132.452 9.8569 132.407 9.83735ZM135.573 10.9717C135.433 10.9627 135.298 10.9171 135.182 10.8397C135.395 10.8539 135.602 10.914 135.789 11.0157C135.759 11.0743 135.643 10.9521 135.573 10.9717ZM136.68 11.4117C136.68 11.3824 136.68 11.4117 136.68 11.3726C136.577 11.3528 136.475 11.3267 136.375 11.2944C136.375 11.265 136.405 11.265 136.435 11.2699C136.465 11.2748 136.36 11.2259 136.435 11.221C136.385 11.221 136.33 11.1721 136.249 11.1721C136.426 11.0843 136.623 11.0438 136.821 11.0548C136.35 10.8152 135.698 10.737 135.187 10.517C134.937 10.4094 134.686 10.3263 134.441 10.2334C134.196 10.1405 133.94 9.98892 133.685 9.87646C133.432 9.76509 133.188 9.63769 132.953 9.4951H132.883C132.843 9.45109 132.813 9.40709 132.723 9.42176C132.552 9.19196 132.137 9.13329 132.026 8.88393C131.503 8.54034 131.033 8.12357 130.634 7.64694C130.497 7.4579 130.415 7.23579 130.398 7.00476C130.382 6.77372 130.43 6.54262 130.539 6.3366C130.703 6.1705 130.908 6.04823 131.134 5.98146C131.36 5.9147 131.6 5.90567 131.831 5.95523C131.716 5.95523 131.576 5.95523 131.405 5.97968C131.545 5.97968 131.791 5.97968 131.951 5.97968C131.911 6.01391 131.746 5.97968 131.646 5.97968C132.256 5.9932 132.849 6.17824 133.354 6.51262C133.905 6.79864 134.412 7.16094 134.857 7.58826C134.871 7.61808 134.883 7.64918 134.892 7.68116C134.937 7.70561 134.967 7.68116 135.012 7.73005C135.057 7.77895 134.952 7.67138 134.952 7.73005C134.42 7.22736 133.816 6.80248 133.159 6.46861C133.418 6.60339 133.66 6.7675 133.88 6.95754C133.88 6.95754 133.88 6.95754 133.88 6.9331C133.88 6.90865 133.94 6.96243 133.905 6.95754C134.412 7.29401 134.854 7.71429 135.212 8.19943C135.248 8.19943 135.238 8.24343 135.283 8.23365C135.453 8.5319 135.708 8.72258 135.859 9.05506C135.723 8.93771 135.628 8.6688 135.443 8.56613C135.443 8.59546 135.443 8.61013 135.503 8.6248C135.841 9.10577 136.147 9.60711 136.42 10.1258C136.572 10.3329 136.699 10.556 136.8 10.7908C136.91 11.0114 136.991 11.2446 137.041 11.485C136.923 11.4518 136.802 11.4273 136.68 11.4117Z" fill="white"/>
<path d="M135.498 10.3164C135.297 10.2494 135.101 10.1693 134.912 10.0769C134.856 10.0769 134.806 10.0524 134.816 10.028C134.77 10.0325 134.724 10.0203 134.686 9.99375C134.686 9.92041 134.581 9.99375 134.551 9.93508C134.521 9.87641 134.591 9.96931 134.601 9.93508C134.491 9.91063 134.541 9.93508 134.431 9.88619C134.461 9.88619 134.481 9.92041 134.491 9.88619C134.426 9.88619 134.411 9.88619 134.396 9.85196C134.381 9.81774 134.396 9.85196 134.345 9.85196C134.18 9.74929 133.845 9.64172 133.599 9.49504C133.514 9.44615 133.454 9.3777 133.369 9.3777C133.128 9.24754 132.896 9.10388 132.672 8.94744C132.206 8.67341 131.775 8.34505 131.39 7.96958C131.35 7.92557 131.335 7.86201 131.255 7.86201C131.139 7.67622 130.939 7.56865 130.854 7.37308C130.828 7.35503 130.802 7.33544 130.779 7.31441C130.739 7.26063 130.714 7.12373 130.658 7.12373C130.603 7.12373 130.694 7.17262 130.658 7.17262C130.543 7.17262 130.493 7.38286 130.608 7.44153C130.916 7.83026 131.276 8.17577 131.68 8.46829C131.785 8.57524 131.905 8.66739 132.036 8.74209C132.231 8.88388 132.397 8.99633 132.537 9.12345H132.612C133.209 9.52921 133.857 9.85789 134.541 10.1013C134.541 10.0329 134.406 10.0573 134.381 9.98397C134.355 9.91063 134.411 9.98397 134.431 9.98397C134.451 9.98397 134.506 10.0426 134.506 10.0182C134.541 10.0818 134.586 10.0671 134.666 10.0866L135.448 10.3507C135.448 10.3507 135.528 10.3116 135.498 10.3164ZM133.178 9.28969C133.178 9.28969 133.243 9.28969 133.253 9.34836C133.263 9.40704 133.178 9.34836 133.178 9.28969ZM133.288 9.34836L133.509 9.46571C133.425 9.45837 133.347 9.42193 133.288 9.36303V9.34836ZM133.519 9.49015C133.649 9.53784 133.772 9.60195 133.885 9.68084C133.754 9.63683 133.634 9.57327 133.519 9.50482V9.49015ZM134.671 9.97908H134.646C134.646 9.97908 134.666 9.97419 134.671 9.98397V9.97908Z" fill="white"/>
<path d="M124.236 3.1585C124.115 3.05923 123.973 2.98742 123.82 2.94826C123.755 2.94826 123.57 2.97759 123.53 2.94826C123.684 2.89888 123.841 2.85968 124.001 2.83091C123.765 2.73871 123.524 2.65874 123.279 2.59134C123.105 2.52711 122.918 2.50693 122.733 2.53267C122.563 2.60112 122.373 2.70379 122.192 2.78691C122.261 2.73343 122.337 2.68905 122.418 2.6549C122.353 2.65938 122.29 2.67598 122.232 2.70379C122.062 2.77224 121.942 2.85536 121.772 2.91892C121.712 2.94914 121.655 2.98346 121.601 3.0216C121.486 3.09005 121.356 3.14872 121.251 3.21228C121.158 3.27591 121.07 3.34447 120.985 3.41763C120.92 3.46164 120.87 3.50564 120.82 3.54475C120.728 3.60723 120.643 3.67759 120.564 3.75499C120.533 3.78685 120.5 3.81628 120.464 3.843C120.285 4.04572 120.135 4.27103 120.018 4.51284C119.793 5.09467 119.76 5.7305 119.923 6.33166C119.824 5.91385 119.833 5.4786 119.948 5.0648C120.063 4.65101 120.282 4.27156 120.584 3.96035C120.588 3.95366 120.59 3.94607 120.59 3.93834C120.59 3.93062 120.588 3.92303 120.584 3.91634C120.659 3.91634 120.7 3.799 120.79 3.77455C120.797 3.75684 120.809 3.74105 120.824 3.72834C120.838 3.71564 120.856 3.70637 120.875 3.70121V3.66699C121.07 3.50075 121.296 3.35896 121.486 3.17806C121.576 3.17806 121.621 3.08516 121.701 3.05093C121.346 3.33031 121.011 3.63423 120.7 3.96035C120.7 4.00924 120.7 4.05813 120.7 4.10702C120.584 4.10702 120.614 4.29282 120.504 4.31727C120.504 4.31727 120.529 4.26348 120.504 4.23415C120.299 4.49235 120.149 4.78807 120.063 5.10383C119.977 5.41959 119.957 5.74898 120.003 6.07253C120.05 6.28548 120.083 6.50101 120.103 6.71792C120.103 6.74725 120.143 6.75703 120.148 6.78637C120.199 7.00639 120.314 7.15796 120.364 7.33886C120.419 7.33886 120.424 7.43176 120.449 7.48554C120.673 7.9045 120.96 8.28846 121.301 8.62475C121.266 8.62475 121.251 8.52207 121.256 8.48785C121.353 8.57266 121.441 8.66595 121.521 8.76654C121.506 8.7529 121.489 8.74238 121.47 8.73565C121.451 8.72891 121.431 8.72611 121.411 8.72742C121.411 8.72742 121.451 8.75676 121.456 8.7861H121.421C121.451 8.85944 121.526 8.89366 121.581 8.94255C121.636 8.99145 121.741 9.10879 121.822 9.16746C122.042 9.32881 122.252 9.47549 122.478 9.61728C122.804 9.81774 123.144 9.97909 123.48 10.16C123.56 10.2063 123.646 10.2424 123.735 10.2676C123.58 10.1117 123.412 9.96782 123.234 9.8373C122.972 9.61802 122.723 9.3846 122.488 9.13813C122.578 9.18213 122.683 9.29947 122.758 9.27014C122.799 9.27014 122.588 9.10879 122.528 9.05012C122.411 8.95802 122.302 8.85663 122.202 8.74698C122.082 8.61008 121.947 8.44384 121.862 8.32161C121.815 8.22625 121.758 8.13609 121.691 8.0527C121.662 7.96165 121.618 7.8758 121.561 7.79846C121.37 7.42175 121.261 7.0106 121.241 6.5908C121.209 6.13266 121.324 5.67629 121.571 5.28535H121.606C121.706 5.13846 121.822 5.00242 121.952 4.87954H121.992C122.179 4.69819 122.385 4.5375 122.608 4.40038C122.982 4.20731 123.37 4.04381 123.77 3.91145C124.094 3.80738 124.431 3.74653 124.772 3.73055C124.608 3.52753 124.429 3.33635 124.236 3.1585ZM120.73 4.99199C120.73 5.11911 120.624 5.24134 120.639 5.37825C120.639 5.37825 120.639 5.37825 120.639 5.41247C120.639 5.4467 120.609 5.4907 120.639 5.50537C120.648 5.49829 120.655 5.48926 120.659 5.47904C120.664 5.46882 120.665 5.45772 120.664 5.4467C120.664 5.49559 120.664 5.4467 120.639 5.41247C120.664 5.20485 120.734 5.00481 120.845 4.82575C120.765 4.88931 120.765 4.96265 120.73 4.99199ZM121.271 7.33397C121.17 7.08229 121.111 6.81659 121.095 6.54679C121.12 6.54679 121.12 6.62013 121.13 6.67391C121.134 6.73433 121.147 6.79379 121.17 6.84993C121.185 7.02105 121.256 7.22152 121.271 7.33397ZM121.741 4.92843C121.741 4.89909 121.797 4.87954 121.782 4.86976C121.767 4.85998 121.812 4.86976 121.827 4.86976C121.816 4.88563 121.802 4.89909 121.786 4.90922C121.769 4.91934 121.751 4.92589 121.731 4.92843H121.741ZM121.802 3.03627C121.802 3.00693 121.837 3.03627 121.842 2.99715C121.847 2.95804 121.817 3.03138 121.802 3.03627ZM122.127 2.82114C122.127 2.86025 122.082 2.86025 122.052 2.87003C122.074 2.84988 122.1 2.83337 122.127 2.82114ZM123.58 3.5252H123.535C123.405 3.58387 123.284 3.62298 123.139 3.68654C123.139 3.68654 123.139 3.68654 123.139 3.71588H123.054C123.029 3.71588 123.029 3.71588 122.994 3.75011C122.939 3.76657 122.885 3.78785 122.834 3.81367C122.798 3.81367 122.834 3.81367 122.778 3.81367C122.723 3.81367 122.718 3.88701 122.633 3.88212C122.425 4.01774 122.209 4.1418 121.987 4.2537C122.112 4.12658 122.323 4.02391 122.488 3.90167C122.554 3.85862 122.623 3.81944 122.693 3.78433C122.728 3.78433 122.753 3.73055 122.788 3.71099C122.824 3.69143 122.899 3.68165 122.914 3.63276C122.991 3.6004 123.065 3.56112 123.134 3.51542C123.274 3.44208 123.435 3.39807 123.565 3.31985C123.565 3.31985 123.565 3.29051 123.565 3.28562C123.565 3.28562 123.66 3.23184 123.72 3.20739C124.021 3.14872 123.76 3.42252 123.58 3.5252Z" fill="white"/>
</g>
<defs>
<clipPath id="clip0_3_198">
<rect width="142" height="36" fill="white"/>
</clipPath>
</defs>
</svg>
