<svg width="13" height="13" viewBox="0 0 13 13" fill="none" xmlns="http://www.w3.org/2000/svg">
<path fill-rule="evenodd" clip-rule="evenodd" d="M12.6869 0.313087C12.8296 0.455817 12.8725 0.670369 12.7957 0.857015L8.12901 12.1903C8.05236 12.3765 7.87154 12.4985 7.67024 12.5C7.46893 12.5014 7.28639 12.382 7.20709 12.1969L5.28588 7.7141L0.80304 5.79288C0.618005 5.71358 0.498575 5.53104 0.500013 5.32974C0.501451 5.12843 0.623476 4.94762 0.809625 4.87097L12.143 0.204302C12.3296 0.127447 12.5442 0.170357 12.6869 0.313087ZM2.29081 5.34253L5.86363 6.87373C5.98163 6.92431 6.07566 7.01834 6.12624 7.13635L7.65745 10.7092L11.4141 1.58588L2.29081 5.34253Z" fill="#476BF0"/>
</svg>
